<svg width="1600" height="900" viewBox="0 0 1600 900" fill="none" xmlns="http://www.w3.org/2000/svg">
  <defs>
    <linearGradient id="bg" x1="0" y1="0" x2="1600" y2="900" gradientUnits="userSpaceOnUse">
      <stop offset="0" stop-color="#030712"/>
      <stop offset="0.55" stop-color="#0B1526"/>
      <stop offset="1" stop-color="#0F2340"/>
    </linearGradient>
    <pattern id="grid" x="0" y="0" width="48" height="48" patternUnits="userSpaceOnUse">
      <path d="M 48 0 L 0 0 0 48" fill="none" stroke="white" stroke-opacity="0.028" stroke-width="1"/>
    </pattern>
    <radialGradient id="ambient" cx="0.72" cy="0.42" r="0.55">
      <stop offset="0" stop-color="#1E3A8A" stop-opacity="0.35"/>
      <stop offset="1" stop-color="#1E3A8A" stop-opacity="0"/>
    </radialGradient>
    <filter id="shadow" x="-10%" y="-10%" width="120%" height="130%">
      <feOffset dy="24"/>
      <feGaussianBlur stdDeviation="32"/>
      <feColorMatrix type="matrix" values="0 0 0 0 0  0 0 0 0 0  0 0 0 0 0  0 0 0 0.45 0"/>
    </filter>
    <clipPath id="chartClip">
      <rect x="0" y="0" width="744" height="160" rx="12"/>
    </clipPath>
  </defs>

  <!-- Background layers -->
  <rect width="1600" height="900" rx="40" fill="url(#bg)"/>
  <rect width="1600" height="900" rx="40" fill="url(#grid)"/>
  <rect width="1600" height="900" rx="40" fill="url(#ambient)"/>
  <rect x="0.5" y="0.5" width="1599" height="899" rx="39.5" fill="none" stroke="white" stroke-opacity="0.06"/>

  <!-- ============ LEFT COLUMN ============ -->
  <g font-family="Inter, 'Segoe UI', system-ui, Arial, sans-serif">
    <!-- Eyebrow -->
    <g transform="translate(100, 112)">
      <rect width="8" height="8" rx="1" fill="#38BDF8"/>
      <text x="20" y="8" fill="#93C5FD" font-size="12" font-weight="700" letter-spacing="3.2">STOCK ANALYSIS AGENT</text>
    </g>

    <!-- Headline -->
    <text x="100" y="210" fill="#F8FAFC" font-size="62" font-weight="800" letter-spacing="-1.8">Institutional</text>
    <text x="100" y="278" fill="#F8FAFC" font-size="62" font-weight="800" letter-spacing="-1.8">research,</text>
    <text x="100" y="356" fill="#64748B" font-size="62" font-weight="300" letter-spacing="-1.8">without invented</text>
    <text x="100" y="424" fill="#64748B" font-size="62" font-weight="300" letter-spacing="-1.8">numbers.</text>

    <!-- Body -->
    <text x="100" y="486" fill="#94A3B8" font-size="17" font-weight="400">US and Korean equities · source-tagged metrics · scenario</text>
    <text x="100" y="512" fill="#94A3B8" font-size="17" font-weight="400">analysis · DCF · memo-ready outputs from one prompt.</text>

    <!-- Authenticity badge (hero proof-point) -->
    <g transform="translate(100, 572)">
      <rect width="556" height="112" rx="16" fill="white" fill-opacity="0.05" stroke="white" stroke-opacity="0.12"/>
      <!-- Grade A badge -->
      <rect x="20" y="20" width="72" height="72" rx="14" fill="#059669"/>
      <text x="56" y="70" text-anchor="middle" fill="white" font-size="40" font-weight="800" letter-spacing="-2">A</text>
      <!-- Text -->
      <text x="112" y="48" fill="#F8FAFC" font-size="19" font-weight="700">Grade A · <tspan fill="#7DD3FC" font-family="'SF Mono', Menlo, monospace">[Filing]</tspan></text>
      <text x="112" y="74" fill="#94A3B8" font-size="14" font-weight="400">Every metric traces to SEC or DART. If it cannot be</text>
      <text x="112" y="94" fill="#94A3B8" font-size="14" font-weight="400">verified, it stays blank — never fabricated.</text>
    </g>

    <!-- Data-source chips -->
    <g transform="translate(100, 716)" font-size="12" font-weight="600" letter-spacing="0.5">
      <rect width="76" height="30" rx="15" fill="white" fill-opacity="0.04" stroke="white" stroke-opacity="0.12"/>
      <text x="38" y="19" text-anchor="middle" fill="#CBD5E1">SEC</text>

      <rect x="84" width="76" height="30" rx="15" fill="white" fill-opacity="0.04" stroke="white" stroke-opacity="0.12"/>
      <text x="122" y="19" text-anchor="middle" fill="#CBD5E1">DART</text>

      <rect x="168" width="76" height="30" rx="15" fill="white" fill-opacity="0.04" stroke="white" stroke-opacity="0.12"/>
      <text x="206" y="19" text-anchor="middle" fill="#CBD5E1">FRED</text>

      <rect x="252" width="180" height="30" rx="15" fill="white" fill-opacity="0.04" stroke="white" stroke-opacity="0.12"/>
      <text x="342" y="19" text-anchor="middle" fill="#CBD5E1">Mode A / B / C / D</text>

      <rect x="440" width="124" height="30" rx="15" fill="white" fill-opacity="0.04" stroke="white" stroke-opacity="0.12"/>
      <text x="502" y="19" text-anchor="middle" fill="#CBD5E1">Blank &gt; Wrong</text>
    </g>
  </g>

  <!-- ============ RIGHT COLUMN — DASHBOARD MOCKUP ============ -->
  <g filter="url(#shadow)">
    <rect x="720" y="80" width="800" height="740" rx="20" fill="white"/>
  </g>

  <g font-family="Inter, 'Segoe UI', system-ui, Arial, sans-serif">
    <!-- Window chrome -->
    <path d="M 720 100 Q 720 80 740 80 L 1500 80 Q 1520 80 1520 100 L 1520 132 L 720 132 Z" fill="#F8FAFC"/>
    <line x1="720" y1="132" x2="1520" y2="132" stroke="#E2E8F0" stroke-width="1"/>
    <circle cx="748" cy="106" r="6" fill="#F87171"/>
    <circle cx="770" cy="106" r="6" fill="#FBBF24"/>
    <circle cx="792" cy="106" r="6" fill="#34D399"/>
    <rect x="940" y="92" width="360" height="28" rx="6" fill="white" stroke="#E2E8F0"/>
    <circle cx="958" cy="106" r="3.5" fill="#10B981"/>
    <text x="1120" y="111" text-anchor="middle" fill="#475569" font-size="13" font-weight="600">Mode C · Deep Dive · NVDA</text>
    <text x="1496" y="111" text-anchor="end" fill="#94A3B8" font-size="11" font-weight="700" letter-spacing="1.4">LIVE</text>
    <circle cx="1500" cy="107" r="3" fill="#10B981"/>

    <!-- Verdict row -->
    <g transform="translate(748, 160)">
      <!-- Ticker block -->
      <text x="0" y="20" fill="#94A3B8" font-size="11" font-weight="700" letter-spacing="1.8">NVDA · NASDAQ</text>
      <text x="0" y="64" fill="#0F172A" font-size="32" font-weight="800" letter-spacing="-0.5">NVIDIA Corp.</text>
      <text x="0" y="90" fill="#64748B" font-size="13" font-weight="500">Semiconductors · USD · Mkt Cap $4.2T</text>

      <!-- Last price -->
      <text x="290" y="20" fill="#94A3B8" font-size="11" font-weight="700" letter-spacing="1.8">LAST PRICE</text>
      <text x="290" y="64" fill="#0F172A" font-size="32" font-weight="800" font-family="'SF Mono', Menlo, monospace">$172.40</text>
      <g transform="translate(290, 80)">
        <path d="M 0 8 L 5 0 L 10 8 Z" fill="#10B981"/>
        <text x="16" y="10" fill="#10B981" font-size="13" font-weight="700">+4.82 (+2.87%) today</text>
      </g>

      <!-- R/R hero card -->
      <rect x="520" y="0" width="224" height="100" rx="14" fill="#0F172A"/>
      <text x="540" y="28" fill="#7DD3FC" font-size="11" font-weight="700" letter-spacing="1.8">R/R SCORE · 12M</text>
      <text x="540" y="78" fill="white" font-size="48" font-weight="800" font-family="'SF Mono', Menlo, monospace">2.7</text>
      <rect x="616" y="54" width="110" height="26" rx="13" fill="#059669"/>
      <text x="671" y="72" text-anchor="middle" fill="white" font-size="11" font-weight="700" letter-spacing="1.2">ATTRACTIVE</text>
    </g>

    <!-- Separator -->
    <line x1="748" y1="286" x2="1492" y2="286" stroke="#E2E8F0" stroke-width="1"/>

    <!-- Scenario row label -->
    <text x="748" y="316" fill="#94A3B8" font-size="11" font-weight="700" letter-spacing="1.8">SCENARIOS · 12M TARGETS</text>

    <!-- Bull -->
    <g transform="translate(748, 330)">
      <rect width="240" height="108" rx="12" fill="#F0FDF4" stroke="#BBF7D0"/>
      <rect width="4" height="108" rx="2" fill="#059669"/>
      <text x="20" y="28" fill="#065F46" font-size="11" font-weight="800" letter-spacing="1.5">BULL</text>
      <text x="220" y="28" text-anchor="end" fill="#059669" font-size="12" font-weight="700" font-family="'SF Mono', Menlo, monospace">35%</text>
      <text x="20" y="68" fill="#064E3B" font-size="30" font-weight="800" font-family="'SF Mono', Menlo, monospace">$220</text>
      <text x="20" y="92" fill="#065F46" font-size="12" font-weight="600">+27.6% upside</text>
    </g>

    <!-- Base -->
    <g transform="translate(1000, 330)">
      <rect width="240" height="108" rx="12" fill="#EFF6FF" stroke="#BFDBFE"/>
      <rect width="4" height="108" rx="2" fill="#2563EB"/>
      <text x="20" y="28" fill="#1E3A8A" font-size="11" font-weight="800" letter-spacing="1.5">BASE</text>
      <text x="220" y="28" text-anchor="end" fill="#2563EB" font-size="12" font-weight="700" font-family="'SF Mono', Menlo, monospace">45%</text>
      <text x="20" y="68" fill="#1E3A8A" font-size="30" font-weight="800" font-family="'SF Mono', Menlo, monospace">$175</text>
      <text x="20" y="92" fill="#1E40AF" font-size="12" font-weight="600">+1.5% base case</text>
    </g>

    <!-- Bear -->
    <g transform="translate(1252, 330)">
      <rect width="240" height="108" rx="12" fill="#FEF2F2" stroke="#FECACA"/>
      <rect width="4" height="108" rx="2" fill="#DC2626"/>
      <text x="20" y="28" fill="#7F1D1D" font-size="11" font-weight="800" letter-spacing="1.5">BEAR</text>
      <text x="220" y="28" text-anchor="end" fill="#DC2626" font-size="12" font-weight="700" font-family="'SF Mono', Menlo, monospace">20%</text>
      <text x="20" y="68" fill="#7F1D1D" font-size="30" font-weight="800" font-family="'SF Mono', Menlo, monospace">$120</text>
      <text x="20" y="92" fill="#991B1B" font-size="12" font-weight="600">−30.4% downside</text>
    </g>

    <!-- KPI row label -->
    <text x="748" y="478" fill="#94A3B8" font-size="11" font-weight="700" letter-spacing="1.8">KEY METRICS · TTM</text>

    <!-- KPI tiles -->
    <g transform="translate(748, 494)">
      <rect width="180" height="76" rx="12" fill="#F8FAFC"/>
      <text x="20" y="28" fill="#64748B" font-size="10" font-weight="700" letter-spacing="1.3">P/E RATIO</text>
      <text x="20" y="60" fill="#0F172A" font-size="24" font-weight="800" font-family="'SF Mono', Menlo, monospace">28.0x</text>
      <text x="160" y="60" text-anchor="end" fill="#2563EB" font-size="10" font-weight="700" font-family="'SF Mono', Menlo, monospace">[Calc]</text>
    </g>
    <g transform="translate(936, 494)">
      <rect width="180" height="76" rx="12" fill="#F8FAFC"/>
      <text x="20" y="28" fill="#64748B" font-size="10" font-weight="700" letter-spacing="1.3">EV / EBITDA</text>
      <text x="20" y="60" fill="#0F172A" font-size="24" font-weight="800" font-family="'SF Mono', Menlo, monospace">22.4x</text>
      <text x="160" y="60" text-anchor="end" fill="#2563EB" font-size="10" font-weight="700" font-family="'SF Mono', Menlo, monospace">[Calc]</text>
    </g>
    <g transform="translate(1124, 494)">
      <rect width="180" height="76" rx="12" fill="#F8FAFC"/>
      <text x="20" y="28" fill="#64748B" font-size="10" font-weight="700" letter-spacing="1.3">FCF YIELD</text>
      <text x="20" y="60" fill="#0F172A" font-size="24" font-weight="800" font-family="'SF Mono', Menlo, monospace">3.1%</text>
      <text x="160" y="60" text-anchor="end" fill="#059669" font-size="10" font-weight="700" font-family="'SF Mono', Menlo, monospace">[Filing]</text>
    </g>
    <g transform="translate(1312, 494)">
      <rect width="180" height="76" rx="12" fill="#F8FAFC"/>
      <text x="20" y="28" fill="#64748B" font-size="10" font-weight="700" letter-spacing="1.3">REV GROWTH</text>
      <text x="20" y="60" fill="#059669" font-size="24" font-weight="800" font-family="'SF Mono', Menlo, monospace">+37%</text>
      <text x="160" y="60" text-anchor="end" fill="#059669" font-size="10" font-weight="700" font-family="'SF Mono', Menlo, monospace">[Filing]</text>
    </g>

    <!-- Chart label -->
    <text x="748" y="606" fill="#94A3B8" font-size="11" font-weight="700" letter-spacing="1.8">PRICE PATH · 12M HISTORICAL + 12M TARGETS</text>

    <!-- Chart -->
    <g transform="translate(748, 620)">
      <rect width="744" height="180" rx="12" fill="#F8FAFC"/>
      <g clip-path="url(#chartClip)" transform="translate(0, 10)">
        <!-- Grid -->
        <line x1="0" y1="30" x2="744" y2="30" stroke="#E2E8F0" stroke-width="1" stroke-dasharray="2 4"/>
        <line x1="0" y1="74" x2="744" y2="74" stroke="#E2E8F0" stroke-width="1" stroke-dasharray="2 4"/>
        <line x1="0" y1="118" x2="744" y2="118" stroke="#E2E8F0" stroke-width="1" stroke-dasharray="2 4"/>

        <!-- Today marker -->
        <line x1="468" y1="12" x2="468" y2="146" stroke="#CBD5E1" stroke-width="1" stroke-dasharray="3 4"/>

        <!-- Historical price (realistic jagged path) -->
        <path d="M 20 128 L 52 124 L 82 120 L 112 126 L 142 118 L 174 114 L 206 108 L 238 116 L 268 104 L 298 98 L 328 104 L 358 92 L 388 88 L 418 84 L 448 78 L 468 76"
              fill="none" stroke="#0F172A" stroke-width="2.2" stroke-linecap="round" stroke-linejoin="round"/>

        <!-- Historical area fill -->
        <path d="M 20 128 L 52 124 L 82 120 L 112 126 L 142 118 L 174 114 L 206 108 L 238 116 L 268 104 L 298 98 L 328 104 L 358 92 L 388 88 L 418 84 L 448 78 L 468 76 L 468 146 L 20 146 Z"
              fill="#0F172A" fill-opacity="0.06"/>

        <!-- Projection: Bull -->
        <path d="M 468 76 L 524 66 L 584 56 L 644 46 L 704 34" fill="none" stroke="#059669" stroke-width="2" stroke-dasharray="4 4" stroke-linecap="round"/>
        <!-- Projection: Base -->
        <path d="M 468 76 L 524 76 L 584 76 L 644 76 L 704 74" fill="none" stroke="#2563EB" stroke-width="2" stroke-dasharray="4 4" stroke-linecap="round"/>
        <!-- Projection: Bear -->
        <path d="M 468 76 L 524 92 L 584 106 L 644 116 L 704 122" fill="none" stroke="#DC2626" stroke-width="2" stroke-dasharray="4 4" stroke-linecap="round"/>

        <!-- Current point -->
        <circle cx="468" cy="76" r="5" fill="white" stroke="#0F172A" stroke-width="2.5"/>
      </g>

      <!-- Y-axis labels -->
      <text x="724" y="44" text-anchor="end" fill="#94A3B8" font-size="10" font-weight="700" font-family="'SF Mono', Menlo, monospace">$220</text>
      <text x="724" y="88" text-anchor="end" fill="#94A3B8" font-size="10" font-weight="700" font-family="'SF Mono', Menlo, monospace">$175</text>
      <text x="724" y="132" text-anchor="end" fill="#94A3B8" font-size="10" font-weight="700" font-family="'SF Mono', Menlo, monospace">$120</text>

      <!-- Today label -->
      <rect x="430" y="18" width="76" height="18" rx="4" fill="#0F172A"/>
      <text x="468" y="31" text-anchor="middle" fill="white" font-size="10" font-weight="700" letter-spacing="0.8">TODAY</text>

      <!-- X-axis labels -->
      <text x="20" y="170" fill="#94A3B8" font-size="10" font-weight="600">−12M</text>
      <text x="244" y="170" text-anchor="middle" fill="#94A3B8" font-size="10" font-weight="600">−6M</text>
      <text x="468" y="170" text-anchor="middle" fill="#0F172A" font-size="10" font-weight="700">NOW</text>
      <text x="584" y="170" text-anchor="middle" fill="#94A3B8" font-size="10" font-weight="600">+6M</text>
      <text x="704" y="170" text-anchor="middle" fill="#94A3B8" font-size="10" font-weight="600">+12M</text>

      <!-- Legend -->
      <g transform="translate(20, 14)" font-size="10" font-weight="700">
        <line x1="0" y1="4" x2="14" y2="4" stroke="#0F172A" stroke-width="2"/>
        <text x="20" y="8" fill="#334155">Historical</text>
        <line x1="88" y1="4" x2="102" y2="4" stroke="#059669" stroke-width="2" stroke-dasharray="3 3"/>
        <text x="108" y="8" fill="#059669">Bull</text>
        <line x1="144" y1="4" x2="158" y2="4" stroke="#2563EB" stroke-width="2" stroke-dasharray="3 3"/>
        <text x="164" y="8" fill="#2563EB">Base</text>
        <line x1="204" y1="4" x2="218" y2="4" stroke="#DC2626" stroke-width="2" stroke-dasharray="3 3"/>
        <text x="224" y="8" fill="#DC2626">Bear</text>
      </g>
    </g>
  </g>
</svg>
