<svg width="1600" height="920" viewBox="0 0 1600 920" fill="none" xmlns="http://www.w3.org/2000/svg">
  <defs>
    <linearGradient id="bg" x1="84" y1="54" x2="1526" y2="872" gradientUnits="userSpaceOnUse">
      <stop offset="0" stop-color="#F8FBFF"/>
      <stop offset="1" stop-color="#EEF6FF"/>
    </linearGradient>
    <linearGradient id="modeA" x1="0" y1="0" x2="1" y2="1">
      <stop offset="0" stop-color="#0F172A"/>
      <stop offset="1" stop-color="#334155"/>
    </linearGradient>
    <linearGradient id="modeB" x1="0" y1="0" x2="1" y2="1">
      <stop offset="0" stop-color="#0F766E"/>
      <stop offset="1" stop-color="#14B8A6"/>
    </linearGradient>
    <linearGradient id="modeC" x1="0" y1="0" x2="1" y2="1">
      <stop offset="0" stop-color="#1D4ED8"/>
      <stop offset="1" stop-color="#38BDF8"/>
    </linearGradient>
    <linearGradient id="modeD" x1="0" y1="0" x2="1" y2="1">
      <stop offset="0" stop-color="#EA580C"/>
      <stop offset="1" stop-color="#FDBA74"/>
    </linearGradient>
    <filter id="softShadow" x="0" y="0" width="1600" height="920" filterUnits="userSpaceOnUse">
      <feOffset dy="16"/>
      <feGaussianBlur stdDeviation="18"/>
      <feColorMatrix type="matrix" values="0 0 0 0 0.0588 0 0 0 0 0.0941 0 0 0 0 0.1568 0 0 0 0.18 0"/>
    </filter>
  </defs>

  <rect width="1600" height="920" rx="40" fill="url(#bg)"/>
  <rect x="60" y="56" width="1480" height="808" rx="32" fill="white" fill-opacity="0.62" stroke="#D9E6F4"/>

  <text x="112" y="148" fill="#0F172A" font-family="Inter, Arial, sans-serif" font-size="24" font-weight="700" letter-spacing="4">FOUR OUTPUT MODES</text>
  <text x="112" y="222" fill="#0F172A" font-family="Inter, Arial, sans-serif" font-size="58" font-weight="800">One research engine, four delivery formats.</text>
  <text x="112" y="272" fill="#475569" font-family="Inter, Arial, sans-serif" font-size="28" font-weight="500">Fast screen. Side-by-side comparison. Deep dashboard. Shareable memo.</text>

  <g filter="url(#softShadow)">
    <rect x="112" y="332" width="654" height="222" rx="28" fill="white"/>
    <rect x="112" y="332" width="654" height="58" rx="28" fill="#F8FAFC"/>
    <rect x="138" y="405" width="122" height="42" rx="21" fill="url(#modeA)"/>
    <text x="176" y="433" fill="white" font-family="Inter, Arial, sans-serif" font-size="22" font-weight="800">A</text>
    <text x="278" y="430" fill="#0F172A" font-family="Inter, Arial, sans-serif" font-size="28" font-weight="800">Quick Briefing</text>
    <text x="278" y="466" fill="#475569" font-family="Inter, Arial, sans-serif" font-size="20" font-weight="500">Single-page screen for fast triage and immediate next steps.</text>
    <rect x="138" y="492" width="236" height="16" rx="8" fill="#E2E8F0"/>
    <rect x="138" y="520" width="198" height="16" rx="8" fill="#CBD5E1"/>
    <rect x="472" y="412" width="248" height="104" rx="20" fill="#F8FAFC"/>
    <path d="M498 490C532 470 558 458 586 440C614 422 638 430 694 390" stroke="#334155" stroke-width="8" stroke-linecap="round"/>
  </g>

  <g filter="url(#softShadow)">
    <rect x="832" y="332" width="654" height="222" rx="28" fill="white"/>
    <rect x="832" y="332" width="654" height="58" rx="28" fill="#F8FAFC"/>
    <rect x="858" y="405" width="122" height="42" rx="21" fill="url(#modeB)"/>
    <text x="896" y="433" fill="white" font-family="Inter, Arial, sans-serif" font-size="22" font-weight="800">B</text>
    <text x="998" y="430" fill="#0F172A" font-family="Inter, Arial, sans-serif" font-size="28" font-weight="800">Peer Comparison</text>
    <text x="998" y="466" fill="#475569" font-family="Inter, Arial, sans-serif" font-size="20" font-weight="500">Rank 2-5 names on the same framework and surface a best pick.</text>
    <rect x="858" y="492" width="286" height="16" rx="8" fill="#E2E8F0"/>
    <rect x="858" y="520" width="254" height="16" rx="8" fill="#CBD5E1"/>
    <rect x="1232" y="412" width="208" height="104" rx="20" fill="#F8FAFC"/>
    <rect x="1254" y="432" width="164" height="14" rx="7" fill="#CCFBF1"/>
    <rect x="1254" y="458" width="136" height="14" rx="7" fill="#99F6E4"/>
    <rect x="1254" y="484" width="110" height="14" rx="7" fill="#5EEAD4"/>
  </g>

  <g filter="url(#softShadow)">
    <rect x="112" y="602" width="654" height="222" rx="28" fill="white"/>
    <rect x="112" y="602" width="654" height="58" rx="28" fill="#F8FAFC"/>
    <rect x="138" y="675" width="122" height="42" rx="21" fill="url(#modeC)"/>
    <text x="176" y="703" fill="white" font-family="Inter, Arial, sans-serif" font-size="22" font-weight="800">C</text>
    <text x="278" y="700" fill="#0F172A" font-family="Inter, Arial, sans-serif" font-size="28" font-weight="800">Deep Dive Dashboard</text>
    <text x="278" y="736" fill="#475569" font-family="Inter, Arial, sans-serif" font-size="20" font-weight="500">The default mode with valuation, charts, risks, and strategy in one view.</text>
    <rect x="472" y="676" width="248" height="112" rx="20" fill="#F8FAFC"/>
    <rect x="494" y="698" width="72" height="52" rx="16" fill="#DBEAFE"/>
    <rect x="578" y="698" width="54" height="52" rx="16" fill="#BFDBFE"/>
    <rect x="644" y="698" width="54" height="52" rx="16" fill="#93C5FD"/>
    <path d="M494 772H694" stroke="#CBD5E1" stroke-width="8" stroke-linecap="round"/>
  </g>

  <g filter="url(#softShadow)">
    <rect x="832" y="602" width="654" height="222" rx="28" fill="white"/>
    <rect x="832" y="602" width="654" height="58" rx="28" fill="#FFF7ED"/>
    <rect x="858" y="675" width="122" height="42" rx="21" fill="url(#modeD)"/>
    <text x="896" y="703" fill="white" font-family="Inter, Arial, sans-serif" font-size="22" font-weight="800">D</text>
    <text x="998" y="700" fill="#0F172A" font-family="Inter, Arial, sans-serif" font-size="28" font-weight="800">Investment Memo</text>
    <text x="998" y="736" fill="#475569" font-family="Inter, Arial, sans-serif" font-size="20" font-weight="500">Long-form DOCX output built for review, sharing, and archive quality.</text>
    <rect x="1232" y="674" width="208" height="120" rx="20" fill="#FFF7ED"/>
    <rect x="1254" y="696" width="164" height="12" rx="6" fill="#FED7AA"/>
    <rect x="1254" y="722" width="148" height="12" rx="6" fill="#FDBA74"/>
    <rect x="1254" y="748" width="130" height="12" rx="6" fill="#FB923C"/>
    <rect x="1254" y="774" width="104" height="12" rx="6" fill="#F97316"/>
  </g>
</svg>
